name Walk7.mot
datacolumns 19
datarows 15
range 2.04500000 2.11500000
endheader

                time	   L_ground_force_vx	   L_ground_force_vy	   L_ground_force_vz	   L_ground_force_px	   L_ground_force_py	   L_ground_force_pz	   R_ground_force_vx	   R_ground_force_vy	   R_ground_force_vz	   R_ground_force_px	   R_ground_force_py	   R_ground_force_pz	   L_ground_torque_x	   L_ground_torque_y	   L_ground_torque_z	   R_ground_torque_x	   R_ground_torque_y	   R_ground_torque_z	
          2.04500000	          0.01477621	          0.05194354	         -0.00108768	         -0.00026376	          0.00000000	         -0.00007443	        -13.11298906	        537.16373472	        -42.74349962	          0.20056425	          0.00000000	          0.10018422	          0.00000000	          0.00015189	          0.00000000	          0.00000000	          1.32935712	          0.00000000	
          2.05000000	          0.00822395	          0.03044371	         -0.00115763	         -0.00021233	          0.00000000	         -0.00006098	        -11.07263645	        528.47378752	        -42.31779190	          0.20278909	          0.00000000	          0.10072227	          0.00000000	          0.00012740	          0.00000000	          0.00000000	          1.30325620	          0.00000000	
          2.05500000	          0.00337169	          0.01424856	         -0.00111093	         -0.00016255	          0.00000000	         -0.00004753	         -9.22642206	        520.49365242	        -42.00340298	          0.20509785	          0.00000000	          0.10128533	          0.00000000	          0.00010162	          0.00000000	          0.00000000	          1.27407018	          0.00000000	
          2.06000000	         -0.00000663	          0.00273603	         -0.00099313	         -0.00011778	          0.00000000	         -0.00003514	         -7.56711830	        513.24858283	        -41.78732978	          0.20748112	          0.00000000	          0.10186616	          0.00000000	          0.00007705	          0.00000000	          0.00000000	          1.24396801	          0.00000000	
          2.06500000	         -0.00217255	         -0.00486311	         -0.00083903	         -0.00007975	          0.00000000	         -0.00002442	         -6.08069818	        506.75568348	        -41.64802551	          0.20992647	          0.00000000	          0.10245617	          0.00000000	          0.00005520	          0.00000000	          0.00000000	          1.21500653	          0.00000000	
          2.07000000	         -0.00338969	         -0.00935169	         -0.00067386	         -0.00004906	          0.00000000	         -0.00001562	         -4.74745049	        501.02747543	        -41.55768685	          0.21242238	          0.00000000	          0.10304590	          0.00000000	          0.00003682	          0.00000000	          0.00000000	          1.18878308	          0.00000000	
          2.07500000	         -0.00390214	         -0.01149052	         -0.00051464	         -0.00002550	          0.00000000	         -0.00000873	         -3.54360422	        496.07400082	        -41.48539018	          0.21495741	          0.00000000	          0.10362511	          0.00000000	          0.00002212	          0.00000000	          0.00000000	          1.16669253	          0.00000000	
          2.08000000	         -0.00392215	         -0.01195334	         -0.00037184	         -0.00000837	          0.00000000	         -0.00000363	         -2.44441631	        491.90157991	        -41.40241747	          0.21751927	          0.00000000	          0.10418254	          0.00000000	          0.00001095	          0.00000000	          0.00000000	          1.14999891	          0.00000000	
          2.08500000	         -0.00362479	         -0.01130478	         -0.00025085	          0.00000328	          0.00000000	         -0.00000007	         -1.42659414	        488.51524460	        -41.28728442	          0.22009665	          0.00000000	          0.10470898	          0.00000000	          0.00000292	          0.00000000	          0.00000000	          1.13962251	          0.00000000	
          2.09000000	         -0.00314742	         -0.00999480	         -0.00015343	          0.00001049	          0.00000000	          0.00000222	         -0.46949538	        485.91959826	        -41.12752469	          0.22267758	          0.00000000	          0.10519907	          0.00000000	         -0.00000246	          0.00000000	          0.00000000	          1.13578222	          0.00000000	
          2.09500000	         -0.00259237	         -0.00836427	         -0.00007882	          0.00001428	          0.00000000	          0.00000351	          0.44453379	        484.11552221	        -40.92042304	          0.22525280	          0.00000000	          0.10565171	          0.00000000	         -0.00000572	          0.00000000	          0.00000000	          1.13771778	          0.00000000	
          2.10000000	         -0.00203140	         -0.00665713	         -0.00002474	          0.00001558	          0.00000000	          0.00000406	          1.33002387	        483.09759345	        -40.67326290	          0.22781528	          0.00000000	          0.10606929	          0.00000000	         -0.00000736	          0.00000000	          0.00000000	          1.14383353	          0.00000000	
          2.10500000	         -0.00151100	         -0.00503587	          0.00001190	          0.00001519	          0.00000000	          0.00000409	          2.19862724	        482.85439828	        -40.40235586	          0.23035770	          0.00000000	          0.10645596	          0.00000000	         -0.00000782	          0.00000000	          0.00000000	          1.15208777	          0.00000000	
          2.11000000	         -0.00105778	         -0.00359791	          0.00003445	          0.00001373	          0.00000000	          0.00000379	          3.06013070	        483.36884711	        -40.13115530	          0.23287258	          0.00000000	          0.10681567	          0.00000000	         -0.00000750	          0.00000000	          0.00000000	          1.16024261	          0.00000000	
          2.11500000	         -0.00068348	         -0.00239123	          0.00004619	          0.00001171	          0.00000000	          0.00000330	          3.92332383	        484.61647457	        -39.88772476	          0.23535345	          0.00000000	          0.10715148	          0.00000000	         -0.00000671	          0.00000000	          0.00000000	          1.16598693	          0.00000000	
